<svg width="22" height="22" viewBox="0 0 22 22" fill="none" xmlns="http://www.w3.org/2000/svg">
<path d="M16.4 16.4C14.846 17.5846 12.9537 18.2408 11 18.2728C4.63636 18.2728 1 11 1 11C2.13081 8.89268 3.69921 7.05151 5.6 5.60005M9.09091 3.9455C9.71667 3.79903 10.3573 3.72581 11 3.72732C17.3636 3.72732 21 11 21 11C20.4482 12.0324 19.7901 13.0043 19.0364 13.9" stroke="#454545" stroke-width="2" stroke-linecap="round" stroke-linejoin="round"/>
<path fill-rule="evenodd" clip-rule="evenodd" d="M0.292893 0.292893C0.683417 -0.0976311 1.31658 -0.0976311 1.70711 0.292893L21.7071 20.2929C22.0976 20.6834 22.0976 21.3166 21.7071 21.7071C21.3166 22.0976 20.6834 22.0976 20.2929 21.7071L0.292893 1.70711C-0.0976311 1.31658 -0.0976311 0.683417 0.292893 0.292893Z" fill="#454545"/>
<path fill-rule="evenodd" clip-rule="evenodd" d="M14.5 10.8333C14.5 12.7662 12.933 14.3333 11 14.3333C9.067 14.3333 7.5 12.7662 7.5 10.8333C7.5 8.90026 9.067 7.33325 11 7.33325C12.933 7.33325 14.5 8.90026 14.5 10.8333ZM11 12.8333C12.1046 12.8333 13 11.9378 13 10.8333C13 9.72868 12.1046 8.83325 11 8.83325C9.89543 8.83325 9 9.72868 9 10.8333C9 11.9378 9.89543 12.8333 11 12.8333Z" fill="#454545"/>
</svg>
