<?xml version="1.0" encoding="UTF-8"?>
<svg width="11px" height="12px" viewBox="0 0 11 12" version="1.1" xmlns="http://www.w3.org/2000/svg" xmlns:xlink="http://www.w3.org/1999/xlink">
    <title>copy</title>
    <g id="WEB-SERVICE-OWNER" stroke="none" stroke-width="1" fill="none" fill-rule="evenodd">
        <g id="Service-detail" transform="translate(-409.000000, -342.000000)" fill="#000000" fill-rule="nonzero">
            <g id="Integration" transform="translate(176.000000, 292.000000)">
                <g id="Token" transform="translate(1.000000, 29.000000)">
                    <g id="copy" transform="translate(232.000000, 21.000000)">
                        <path d="M6.98487837,2 L1.01512163,2 C0.45496384,2 0,2.42938694 0,2.95805411 L0,11.0419459 C0,11.5706131 0.45496384,12 1.01512163,12 L6.98487837,12 C7.54503616,12 8,11.5706131 8,11.0419459 L8,2.95805411 C7.99737015,2.42938694 7.54240631,2 6.98487837,2 Z M7.28731098,11.0394639 C7.28731098,11.1983122 7.15055884,11.3273765 6.98224852,11.3273765 L1.01249178,11.3273765 C0.84418146,11.3273765 0.707429323,11.1983122 0.707429323,11.0394639 L0.707429323,2.95805411 C0.707429323,2.79920576 0.84418146,2.67014147 1.01249178,2.67014147 L6.98224852,2.67014147 C7.15055884,2.67014147 7.28731098,2.79920576 7.28731098,2.95805411 L7.28731098,11.0394639 Z" id="Shape"></path>
                        <path d="M9.98487837,0 L4.01512163,0 C3.45496384,0 3,0.429386945 3,0.958054108 C3,1.14420452 3.15779093,1.29312484 3.35502959,1.29312484 C3.55226824,1.29312484 3.71005917,1.14420452 3.71005917,0.958054108 C3.71005917,0.799205758 3.84681131,0.670141474 4.01512163,0.670141474 L9.98487837,0.670141474 C10.1531887,0.670141474 10.2899408,0.799205758 10.2899408,0.958054108 L10.2899408,9.04194589 C10.2899408,9.20079424 10.1531887,9.32985853 9.98487837,9.32985853 C9.78763971,9.32985853 9.62984878,9.47877885 9.62984878,9.66492926 C9.62984878,9.85107967 9.78763971,10 9.98487837,10 C10.5450362,10 11,9.57061306 11,9.04194589 L11,0.958054108 C11,0.429386945 10.5450362,0 9.98487837,0 Z" id="Path"></path>
                    </g>
                </g>
            </g>
        </g>
    </g>
</svg>