<svg width="22" height="16" viewBox="0 0 22 16" fill="none" xmlns="http://www.w3.org/2000/svg">
<path d="M16.4 13.1975C14.846 14.3376 12.9537 14.9693 11 15C4.63636 15 1 8.00001 1 8.00001C2.13081 5.97167 3.69921 4.19955 5.6 2.80252M9.09091 1.21002C9.71667 1.06904 10.3573 0.998568 11 1.00002C17.3636 1.00002 21 8.00001 21 8.00001C20.4482 8.99367 19.7901 9.92915 19.0364 10.7913" stroke="#454545" stroke-width="2" stroke-linecap="round" stroke-linejoin="round"/>
<path fill-rule="evenodd" clip-rule="evenodd" d="M14.5 8C14.5 9.933 12.933 11.5 11 11.5C9.067 11.5 7.5 9.933 7.5 8C7.5 6.067 9.067 4.5 11 4.5C12.933 4.5 14.5 6.067 14.5 8ZM11 10C12.1046 10 13 9.10457 13 8C13 6.89543 12.1046 6 11 6C9.89543 6 9 6.89543 9 8C9 9.10457 9.89543 10 11 10Z" fill="#454545"/>
</svg>
