<?xml version="1.0" encoding="UTF-8"?>
<svg width="12px" height="12px" viewBox="0 0 12 12" version="1.1" xmlns="http://www.w3.org/2000/svg" xmlns:xlink="http://www.w3.org/1999/xlink">
    <title>remove</title>
    <g id="WEB-ADMIN" stroke="none" stroke-width="1" fill="none" fill-rule="evenodd">
        <g id="Requests" transform="translate(-694.000000, -97.000000)" fill="#000000" fill-rule="nonzero">
            <g id="Login-history" transform="translate(156.000000, 73.000000)">
                <g id="Login-stamp" transform="translate(9.154472, 24.000000)">
                    <g id="remove" transform="translate(528.845528, 0.000000)">
                        <path d="M6,12 C2.6914673,12 0,9.3085327 0,6 C0,2.6914673 2.6914673,0 6,0 C9.3085327,0 12,2.6914673 12,6 C12,9.3085327 9.3085327,12 6,12 Z M6,0.75 C3.10501099,0.75 0.75,3.10501099 0.75,6 C0.75,8.89498901 3.10501099,11.25 6,11.25 C8.89498901,11.25 11.25,8.89498901 11.25,6 C11.25,3.10501099 8.89498901,0.75 6,0.75 Z" id="Shape"></path>
                        <path d="M4.33603447,8 C4.24995385,8 4.16387323,7.9673409 4.09847164,7.90144833 C3.96717612,7.7701555 3.96717612,7.557297 4.09847164,7.42600418 L7.42599242,4.09846962 C7.55737,3.96717679 7.77023284,3.96717679 7.90152836,4.09846962 C8.03282388,4.22976244 8.03282388,4.44262092 7.90152836,4.5739958 L4.57392554,7.90144833 C4.50762131,7.9673409 4.42162274,8 4.33603447,8 L4.33603447,8 Z" id="Path"></path>
                        <path d="M7.66349715,8 C7.57749946,8 7.49141973,7.96733738 7.4260188,7.90143771 L4.09853217,4.57403713 C3.96715594,4.44273017 3.96715594,4.22984874 4.09853217,4.09854177 C4.22982634,3.96715274 4.44268702,3.96715274 4.5739812,4.09854177 L7.90146783,7.42635268 C8.03284406,7.55765965 8.03284406,7.77054108 7.90146783,7.90184804 C7.83565662,7.96733738 7.74957688,8 7.66349715,8 L7.66349715,8 Z" id="Path"></path>
                    </g>
                </g>
            </g>
        </g>
    </g>
</svg>