<?xml version="1.0" encoding="UTF-8"?>
<svg width="12px" height="12px" viewBox="0 0 12 12" version="1.1" xmlns="http://www.w3.org/2000/svg" xmlns:xlink="http://www.w3.org/1999/xlink">
    <title>maps-and-flags</title>
    <g id="WEB-ADMIN" stroke="none" stroke-width="1" fill="none" fill-rule="evenodd">
        <g id="Requests" transform="translate(-712.000000, -97.000000)" fill="#000000" fill-rule="nonzero">
            <g id="Login-history" transform="translate(156.000000, 73.000000)">
                <g id="Login-stamp" transform="translate(9.154472, 24.000000)">
                    <g id="actions" transform="translate(528.845528, 0.000000)">
                        <g id="maps-and-flags" transform="translate(18.000000, 0.000000)">
                            <path d="M6,0 C2.68352344,0 0,2.68380469 0,6 C0,9.31647656 2.68380469,12 6,12 C9.31647656,12 12,9.31619531 12,6 C12,2.68352344 9.31619531,0 6,0 Z M6,11.2000078 C3.13272656,11.2000078 0.799992188,8.86729688 0.799992188,6 C0.799992188,3.13270312 3.13272656,0.799992188 6,0.799992188 C8.86727344,0.799992188 11.2000078,3.13272656 11.2000078,6 C11.2000078,8.86727344 8.86727344,11.2000078 6,11.2000078 Z" id="Shape"></path>
                            <path d="M9.27065891,3.77063938 C9.10979833,3.61268543 8.84897007,3.61268543 8.68813362,3.77063938 L5.02111568,7.37139695 L3.31186638,5.69305625 C3.1510058,5.5351023 2.89017754,5.5351023 2.72934109,5.69305625 C2.56848051,5.8510102 2.56848051,6.10710178 2.72934109,6.26505573 L4.7298289,8.22939617 C4.89066535,8.38732642 5.15156601,8.38727903 5.31235419,8.22939617 L9.27065891,4.34261516 C9.43151949,4.18466121 9.43151949,3.92859333 9.27065891,3.77063938 Z" id="Path"></path>
                        </g>
                    </g>
                </g>
            </g>
        </g>
    </g>
</svg>