<?xml version="1.0" encoding="UTF-8"?>
<svg width="42px" height="42px" viewBox="0 0 42 42" version="1.1" xmlns="http://www.w3.org/2000/svg" xmlns:xlink="http://www.w3.org/1999/xlink">
    <title>Logo</title>
    <g id="SHARED" stroke="none" stroke-width="1" fill="none" fill-rule="evenodd">
        <g id="Login" transform="translate(-43.000000, -22.000000)">
            <g id="Logo" transform="translate(43.000000, 22.000000)">
                <path d="M42,18.3847763 C42,8.23114473 32.5979797,0 21,0 C9.40202025,0 0,8.23114473 0,18.3847763 C0,28.5384079 42,28.5384079 42,18.3847763 Z" id="Oval" fill="#262626"></path>
                <path d="M21,22.0004963 C32.5979797,22.0004963 42,30.4272347 42,40.8221433 C42,41.2307708 41.9350973,41.6233349 41.8103945,41.9998358 C38.8875365,33.175348 3.11246346,33.175348 0.189605507,42 C0.0649027348,41.6233349 0,41.2307708 0,40.8221433 C0,30.4272347 9.40202025,22.0004963 21,22.0004963 Z" id="Combined-Shape" fill="#D1CBE4" transform="translate(21.000000, 32.000248) rotate(180.000000) translate(-21.000000, -32.000248) "></path>
            </g>
        </g>
    </g>
</svg>